<svg xmlns="http://www.w3.org/2000/svg" width="1200" height="800" version="1.0" viewBox="0 0 3600 2400">
<rect fill="#000" width="3600" height="2400"/>
<rect fill="#00afee" width="3600" height="1710"/>
<polygon fill="#ffe100" stroke="#fdcb03" stroke-width="4" points="1638,443 1759,628 1897,207 1952,659 2288,355 2098,823 2424,803 2199,1048 2554,1212 2211,1228 2499,1662 2091,1388 2437,2244 1900,1481 1773,1906 1698,1429 1445,1690 1524,1279 1029,1368 1468,1034 1035,865 1471,869 1255,557 1591,700 1497,228 "/>
<polygon fill="#d90000" stroke="#940202" stroke-width="4" points="1596,471 1774,742 1874,436 1914,760 2159,538 2021,878 2304,860 2116,1065 2348,1172 2121,1183 2319,1481 1984,1255 2229,1861 1881,1368 1788,1681 1731,1323 1525,1535 1586,1218 1224,1283 1569,1020 1306,918 1566,920 1394,670 1659,783 "/>
</svg>