<?xml version="1.0" encoding="UTF-8" standalone="no"?>
<!-- Created with Inkscape (http://www.inkscape.org/) -->

<svg
   sodipodi:docname="Рисуем барашка. Шаг 9.svg"
   inkscape:version="1.2.1 (9c6d41e410, 2022-07-14)"
   version="1.1"
   id="svg3483"
   viewBox="0 0 495.68184 449.16767"
   height="126.7651mm"
   width="139.89243mm"
   xmlns:inkscape="http://www.inkscape.org/namespaces/inkscape"
   xmlns:sodipodi="http://sodipodi.sourceforge.net/DTD/sodipodi-0.dtd"
   xmlns="http://www.w3.org/2000/svg"
   xmlns:svg="http://www.w3.org/2000/svg"
   xmlns:rdf="http://www.w3.org/1999/02/22-rdf-syntax-ns#">
  <rect
     fill="rgb(128,128,128)"
     x="0"
     y="0"
     width="495.68184"
     height="449.16767"
    />
  <sodipodi:namedview
     inkscape:window-maximized="1"
     inkscape:window-y="-4"
     inkscape:window-x="-4"
     inkscape:window-height="705"
     inkscape:window-width="1366"
     showgrid="false"
     inkscape:current-layer="layer1"
     inkscape:document-units="px"
     inkscape:cy="254.31266"
     inkscape:cx="340.63096"
     inkscape:zoom="0.71880422"
     inkscape:pageshadow="2"
     inkscape:pageopacity="0.0"
     borderopacity="1.0"
     bordercolor="#666666"
     pagecolor="#ffffff"
     id="base"
     inkscape:showpageshadow="2"
     inkscape:pagecheckerboard="0"
     inkscape:deskcolor="#d1d1d1"
     inkscape:rotation="-1"
     showguides="true" />
  <defs
     id="defs3485" />
  <metadata
     id="metadata3488">
    <rdf:RDF />
  </metadata>
  <g
     inkscape:label="Layer 1"
     inkscape:groupmode="layer"
     id="layer1"
     transform="translate(-2281.9844,-1922.3209)">
    <rect
       style="fill:#000000;fill-opacity:1;stroke:#fdf5bb;stroke-width:0.9375;stroke-miterlimit:4;stroke-dasharray:none;stroke-opacity:1"
       id="rect752-1-5-1"
       width="31.177143"
       height="135.10095"
       x="2396.4556"
       y="2191.8479"
       ry="15.588572" />
    <rect
       style="fill:#000000;fill-opacity:1;stroke:#fdf5bb;stroke-width:1.08471;stroke-miterlimit:4;stroke-dasharray:none;stroke-opacity:1"
       id="rect752-5-3-4-6"
       width="31.02993"
       height="181.71945"
       x="2356.4438"
       y="2189.2268"
       ry="20.96763" />
    <rect
       style="fill:#000000;fill-opacity:1;stroke:#fdf5bb;stroke-width:0.9375;stroke-miterlimit:4;stroke-dasharray:none;stroke-opacity:1"
       id="rect752-0-9-8-1"
       width="31.177143"
       height="135.10095"
       x="2555.3203"
       y="2186.4541"
       ry="15.588572" />
    <rect
       style="fill:#000000;fill-opacity:1;stroke:#fdf5bb;stroke-width:1.08471;stroke-miterlimit:4;stroke-dasharray:none;stroke-opacity:1"
       id="rect752-5-1-8-6-8"
       width="31.02993"
       height="181.71945"
       x="2517.1831"
       y="2183.833"
       ry="20.96763" />
    <path
       id="path10983-1-6-9-9-2-7-4"
       style="fill:#ffffff;fill-opacity:1;stroke:#000000;stroke-width:0.9375;stroke-miterlimit:4;stroke-dasharray:none;stroke-opacity:1"
       d="m 2631.4188,1982.6024 a 21.983709,21.983709 0 0 0 -22.6978,21.2439 21.983709,21.983709 0 0 0 0.1905,3.5193 21.985434,21.985434 0 0 0 -1.4264,-2.2119 21.985434,21.985434 0 0 0 -30.7398,-4.6656 21.985434,21.985434 0 0 0 -4.6655,30.7398 21.985434,21.985434 0 0 0 1.4026,1.6461 21.985781,21.985781 0 0 0 -1.7322,-1.1316 21.985781,21.985781 0 0 0 -30.0989,7.7948 21.985781,21.985781 0 0 0 7.793,30.0989 21.985781,21.985781 0 0 0 1.5601,0.7745 21.985622,21.985622 0 0 0 -1.6553,-0.4046 21.985622,21.985622 0 0 0 -25.8746,17.2376 21.985622,21.985622 0 0 0 -0.033,0.2527 21.986208,21.986208 0 0 0 -20.9253,-21.938 21.986208,21.986208 0 0 0 -23.02,20.9016 21.986208,21.986208 0 0 0 0.141,0.9448 184.473,86.811 0 0 0 -0.1978,0.01 21.986017,21.986017 0 0 0 -0.018,-0.9997 21.986017,21.986017 0 0 0 -20.614,-20.1051 21.986017,21.986017 0 0 0 -3.1366,0.038 21.986017,21.986017 0 0 0 -20.0665,23.7507 21.986017,21.986017 0 0 0 0.1391,0.4834 184.473,86.811 0 0 0 -0.1263,0.02 21.98591,21.98591 0 0 0 -0.1556,-1.073 21.98591,21.98591 0 0 0 -22.9724,-17.3621 21.98591,21.98591 0 0 0 -3.1073,0.4321 21.98591,21.98591 0 0 0 -16.93,26.0798 21.98591,21.98591 0 0 0 0.2271,0.5292 184.473,86.811 0 0 0 -0.1209,0.037 21.985603,21.985603 0 0 0 -0.271,-0.9155 21.985603,21.985603 0 0 0 -22.1283,-14.3079 21.985603,21.985603 0 0 0 -6.1175,1.3129 21.985603,21.985603 0 0 0 -12.995,28.2458 21.985603,21.985603 0 0 0 0.5548,1.2232 21.985987,21.985987 0 0 0 -1.1188,-1.734 21.985987,21.985987 0 0 0 -30.672,-5.0995 21.985987,21.985987 0 0 0 -5.0995,30.672 21.985987,21.985987 0 0 0 1.1298,1.3623 21.984367,21.984367 0 0 0 -4.0961,-1.9428 21.984367,21.984367 0 0 0 -28.0389,13.4363 21.984367,21.984367 0 0 0 13.4362,28.0371 21.984367,21.984367 0 0 0 4.3415,0.9925 21.985142,21.985142 0 0 0 -3.3161,1.8017 21.985142,21.985142 0 0 0 -5.9344,30.52 21.985142,21.985142 0 0 0 30.52,5.9345 21.985142,21.985142 0 0 0 2.5177,-1.983 21.984943,21.984943 0 0 0 -1.1115,1.7285 21.984943,21.984943 0 0 0 8.7543,29.8333 21.984943,21.984943 0 0 0 29.8352,-8.7542 21.984943,21.984943 0 0 0 0.5255,-1.0547 184.473,86.811 0 0 0 0.024,0.011 21.985743,21.985743 0 0 0 -0.542,1.4355 21.985743,21.985743 0 0 0 14.806,27.3413 21.985743,21.985743 0 0 0 27.3413,-14.8059 21.985743,21.985743 0 0 0 0.1666,-0.7324 184.473,86.811 0 0 0 0.1684,0.04 21.985994,21.985994 0 0 0 -0.3277,0.9466 21.985994,21.985994 0 0 0 18.3417,25.1056 21.985994,21.985994 0 0 0 25.1056,-18.3417 21.985994,21.985994 0 0 0 0.066,-0.736 184.473,86.811 0 0 0 0.1776,0.016 21.986057,21.986057 0 0 0 -0.2088,0.8863 21.986057,21.986057 0 0 0 21.2037,22.7435 21.986057,21.986057 0 0 0 22.7417,-21.2036 21.986057,21.986057 0 0 0 -0.015,-0.4962 184.473,86.811 0 0 0 0.1685,0 21.986053,21.986053 0 0 0 -0.095,0.8332 21.986053,21.986053 0 0 0 23.7122,20.1141 21.986053,21.986053 0 0 0 20.1123,-23.7121 21.986053,21.986053 0 0 0 -0.1135,-0.4285 184.473,86.811 0 0 0 0.2252,-0.031 21.985928,21.985928 0 0 0 0.01,0.9228 21.985928,21.985928 0 0 0 26.0101,17.0343 21.985928,21.985928 0 0 0 17.0361,-26.0101 21.985928,21.985928 0 0 0 -0.216,-0.5347 184.473,86.811 0 0 0 0.2307,-0.06 21.985567,21.985567 0 0 0 0.1373,0.8771 21.985567,21.985567 0 0 0 28.2092,13.0755 21.985567,21.985567 0 0 0 13.0738,-28.211 21.985567,21.985567 0 0 0 -0.4889,-1.0895 184.473,86.811 0 0 0 0.068,-0.035 21.986002,21.986002 0 0 0 0.7709,1.3147 21.986002,21.986002 0 0 0 30.5731,5.6653 21.986002,21.986002 0 0 0 5.6653,-30.5731 21.986002,21.986002 0 0 0 -1.3806,-1.7286 21.984562,21.984562 0 0 0 3.4222,1.767 21.984562,21.984562 0 0 0 28.5535,-12.3047 21.984562,21.984562 0 0 0 -12.3047,-28.5516 21.984562,21.984562 0 0 0 -4.9219,-1.2689 21.984613,21.984613 0 0 0 3.0945,-1.6553 21.984613,21.984613 0 0 0 6.4178,-30.4211 21.984613,21.984613 0 0 0 -4.2517,-4.7956 21.985418,21.985418 0 0 0 10.2649,-10.7904 21.985418,21.985418 0 0 0 -11.3159,-28.9581 21.985418,21.985418 0 0 0 -1.9592,-0.6976 21.985136,21.985136 0 0 0 2.7246,0.2307 21.985136,21.985136 0 0 0 22.262,-21.7055 21.985136,21.985136 0 0 0 -21.7035,-22.2619 21.985136,21.985136 0 0 0 -1.9446,0.1153 21.983305,21.983305 0 0 0 3.5321,-1.7559 21.983305,21.983305 0 0 0 6.8921,-30.315 21.983305,21.983305 0 0 0 -30.3168,-6.8921 21.983305,21.983305 0 0 0 -2.4683,1.8128 21.983709,21.983709 0 0 0 0.6574,-4.4348 21.983709,21.983709 0 0 0 -21.2439,-22.6978 z" />
    <path
       d="m 2482.4813,2065.0267 c 6.4,5.68 41.37,-20.92 33.62,-20.78 -7.75,0.14 -7.97,-2.68 -16.07,-2.88 -8.1,-0.2 12.58,5.35 7.81,-1.61 -4.77,-6.95 -8.86,-5.66 -15.9,-8.55 -4.62,-1.9 -10.82,1.22 -14.68,4.87 -3.85,3.66 1.02,25.22 5.22,28.95 z m 4.56,-57.63 c -6.76,5.26 -10.86,28.67 -3.82,31.93 7.04,3.26 14.12,3.03 20.66,-1.75 6.55,-4.77 1.54,2.42 7.9,-3.12 6.35,-5.54 6,-10.35 6.65,-17.93 0.43,-4.97 -3.24,-10.04 -7.55,-13.14 -4.32,-3.1 -19.41,0.56 -23.84,4.01 z m 49.59,-5.4 c -7.89,-3.34 -26.12,0.34 -27.91,7.88 -1.79,7.55 0.39,14.79 6.73,19.84 6.34,5.04 1.74,4.45 9.69,7.23 7.96,2.79 13,0.25 19.57,-3.6 4.3,-2.52 6.43,-8.34 6.55,-13.65 0.12,-5.31 -9.46,-15.51 -14.63,-17.7 z m 30.64,37.93 c -1.76,-8.39 -15,-20.64 -22.35,-18.15 -7.34,2.49 -12.22,8.41 -12.87,16.49 -0.66,8.07 -2.52,5.85 0.47,13.73 3,7.88 8.5,10.75 15.84,12.74 4.81,1.31 10.38,-0.88 14.39,-4.36 4.01,-3.49 5.67,-14.96 4.52,-20.45 z m -6.61,44.15 c 4.07,-7.54 3.03,-23.05 -3.71,-26.9 -6.73,-3.85 -14.52,-3.39 -20.87,1.64 -6.35,5.03 -7.28,4 -10.04,11.96 -2.76,7.97 -0.58,13.44 3.74,19.71 2.83,4.1 8.33,6.18 13.64,6.23 5.31,0.05 14.58,-7.69 17.24,-12.64 z m -34.75,29.33 c 8.1,-2.79 17.91,-15.67 15.34,-22.99 -2.58,-7.32 -8.56,-12.09 -16.64,-12.63 -8.08,-0.53 -8.45,-1.34 -15.71,2.93 -7.27,4.28 -9.45,10.45 -9.92,18.04 -0.3,4.98 3.03,10.02 7.28,13.21 4.24,3.2 14.34,3.27 19.65,1.44 z m -42.63,1.93 c 8.3,2.09 21.87,-2.35 24.57,-9.62 2.7,-7.27 0.63,-15.02 -5.6,-20.2 -6.23,-5.17 -7.15,-6.82 -15.57,-7.08 -8.43,-0.26 -13.5,3.6 -17.92,9.8 -2.89,4.06 -3.1,9.81 -1.42,14.85 1.67,5.04 10.49,10.88 15.94,12.25 z m -36.77,-21.82 c 5.81,6.3 19.88,10.17 26.02,5.43 6.13,-4.74 8.68,-12.04 6.5,-19.84 -2.19,-7.8 -2.75,-10.25 -9.78,-14.91 -7.03,-4.65 -13.15,-3.87 -20.26,-1.16 -4.67,1.77 -7.86,6.48 -9.21,11.62 -1.35,5.14 2.93,14.74 6.73,18.86 z m -19.2,-37.32 c 1.79,8.38 11.4,18.53 19.13,17.85 7.73,-0.67 13.87,-5.82 15.93,-13.66 2.06,-7.83 2.93,-9.53 -0.48,-17.24 -3.42,-7.72 -9.56,-11 -17.11,-11.94 -4.95,-0.62 -10.07,1.91 -13.72,5.77 -3.65,3.86 -4.92,13.73 -3.75,19.22 z m 1.5,-40.92 c -2.22,8.27 1.25,21.16 8.33,24.32 7.08,3.16 14.74,1.95 20.57,-3.67 5.83,-5.62 7.54,-8.19 7.96,-16.61 0.41,-8.42 -3.51,-14.05 -9.83,-18.29 -4.14,-2.78 -9.91,-2.83 -14.91,-1.02 -4.99,1.82 -10.66,9.85 -12.12,15.27 z m 20.12,-35.71 c -5.76,6.33 -8.67,19.49 -3.76,25.49 4.92,6 12.35,8.38 20.09,5.97 7.73,-2.4 11.02,-3.93 15.01,-11.35 3.99,-7.43 2.92,-13.76 -0.77,-20.41 -2.42,-4.36 -7.67,-7.01 -12.95,-7.6 -5.28,-0.59 -13.84,3.74 -17.62,7.9 z m 34.35,-22.7 c -8.04,2.94 -16.29,13.35 -14.91,20.99 1.38,7.63 7.03,13.23 15.02,14.57 7.99,1.33 11.37,1.36 18.33,-3.41 6.96,-4.76 9.03,-11.29 8.63,-18.89 -0.26,-4.98 -3.68,-9.55 -8.13,-12.45 -4.45,-2.91 -13.66,-2.73 -18.94,-0.81 z m 40.01,-5.46 c -8.53,-0.76 -20.74,5.16 -22.57,12.69 -1.84,7.54 0.72,14.87 7.28,19.62 6.57,4.74 10.2,5.96 18.51,4.53 8.31,-1.43 13.38,-6.59 15.78,-13.81 1.58,-4.74 0.55,-10.15 -2.32,-14.62 -2.87,-4.48 -11.09,-7.91 -16.68,-8.41 z m 37.72,10.62 c -7.66,-3.81 -20.26,-3.03 -25.05,3.08 -4.78,6.1 -5.17,14.17 -0.8,20.99 4.37,6.82 7.05,9.89 15.31,11.6 8.25,1.71 14.27,-1.18 19.48,-6.73 3.41,-3.64 4.37,-9.37 3.37,-14.58 -1.01,-5.22 -7.28,-11.86 -12.31,-14.36 z m 31.29,25.31 c -5.38,-6.66 -17.48,-10.96 -24.36,-7.38 -6.87,3.59 -10.52,10.69 -9.37,18.71 1.14,8.02 2.67,11.72 9.49,16.67 6.82,4.96 14.04,5.06 20.86,1.7 4.48,-2.21 7.65,-6.74 8.83,-11.92 1.18,-5.18 -1.92,-13.41 -5.45,-17.78 z"
       style="fill:#ff9955;fill-opacity:1;stroke:#000000;stroke-width:2.05092;stroke-miterlimit:4;stroke-dasharray:none;stroke-opacity:1"
       id="ellipse43-3-47" />
    <path
       d="m 2721.0447,2037.0336 c -6.4,5.68 -41.37,-20.92 -33.62,-20.78 7.75,0.14 7.97,-2.68 16.07,-2.88 8.1,-0.2 -12.58,5.35 -7.81,-1.61 4.77,-6.95 8.86,-5.66 15.9,-8.55 4.62,-1.9 10.82,1.22 14.68,4.87 3.85,3.66 -1.02,25.22 -5.22,28.95 z m -4.56,-57.63 c 6.76,5.26 10.86,28.67 3.82,31.93 -7.04,3.26 -14.12,3.03 -20.66,-1.75 -6.55,-4.77 -1.54,2.42 -7.9,-3.12 -6.35,-5.54 -6,-10.35 -6.65,-17.93 -0.43,-4.97 3.24,-10.04 7.55,-13.14 4.32,-3.1 19.41,0.56 23.84,4.01 z m -49.59,-5.4 c 7.89,-3.34 26.12,0.34 27.91,7.88 1.79,7.55 -0.39,14.79 -6.73,19.84 -6.34,5.04 -1.74,4.45 -9.69,7.23 -7.96,2.79 -13,0.25 -19.57,-3.6 -4.3,-2.52 -6.43,-8.34 -6.55,-13.65 -0.12,-5.31 9.46,-15.51 14.63,-17.7 z m -30.64,37.93 c 1.76,-8.39 15,-20.64 22.35,-18.15 7.34,2.49 12.22,8.41 12.87,16.49 0.66,8.07 2.52,5.85 -0.47,13.73 -3,7.88 -8.5,10.75 -15.84,12.74 -4.81,1.31 -10.38,-0.88 -14.39,-4.36 -4.01,-3.49 -5.67,-14.96 -4.52,-20.45 z m 6.61,44.15 c -4.07,-7.54 -3.03,-23.05 3.71,-26.9 6.73,-3.85 14.52,-3.39 20.87,1.64 6.35,5.03 7.28,4 10.04,11.96 2.76,7.97 0.58,13.44 -3.74,19.71 -2.83,4.1 -8.33,6.18 -13.64,6.23 -5.31,0.05 -14.58,-7.69 -17.24,-12.64 z m 34.75,29.33 c -8.1,-2.79 -17.91,-15.67 -15.34,-22.99 2.58,-7.32 8.56,-12.09 16.64,-12.63 8.08,-0.53 8.45,-1.34 15.71,2.93 7.27,4.28 9.45,10.45 9.92,18.04 0.3,4.98 -3.03,10.02 -7.28,13.21 -4.24,3.2 -14.34,3.27 -19.65,1.44 z m 42.63,1.93 c -8.3,2.09 -21.87,-2.35 -24.57,-9.62 -2.7,-7.27 -0.63,-15.02 5.6,-20.2 6.23,-5.17 7.15,-6.82 15.57,-7.08 8.43,-0.26 13.5,3.6 17.92,9.8 2.89,4.06 3.1,9.81 1.42,14.85 -1.67,5.04 -10.49,10.88 -15.94,12.25 z m 36.77,-21.82 c -5.81,6.3 -19.88,10.17 -26.02,5.43 -6.13,-4.74 -8.68,-12.04 -6.5,-19.84 2.19,-7.8 2.75,-10.25 9.78,-14.91 7.03,-4.65 13.15,-3.87 20.26,-1.16 4.67,1.77 7.86,6.48 9.21,11.62 1.35,5.14 -2.93,14.74 -6.73,18.86 z m 19.2,-37.32 c -1.79,8.38 -11.4,18.53 -19.13,17.85 -7.73,-0.67 -13.87,-5.82 -15.93,-13.66 -2.06,-7.83 -2.93,-9.53 0.48,-17.24 3.42,-7.72 9.56,-11 17.11,-11.94 4.95,-0.62 10.07,1.91 13.72,5.77 3.65,3.86 4.92,13.73 3.75,19.22 z m -1.5,-40.92 c 2.22,8.27 -1.25,21.16 -8.33,24.32 -7.08,3.16 -14.74,1.95 -20.57,-3.67 -5.83,-5.62 -7.54,-8.19 -7.96,-16.61 -0.41,-8.42 3.51,-14.05 9.83,-18.29 4.14,-2.78 9.91,-2.83 14.91,-1.02 4.99,1.82 10.66,9.85 12.12,15.27 z m -20.12,-35.71 c 5.76,6.33 8.67,19.49 3.76,25.49 -4.92,6 -12.35,8.38 -20.09,5.97 -7.73,-2.4 -11.02,-3.93 -15.01,-11.35 -3.99,-7.43 -2.92,-13.76 0.77,-20.41 2.42,-4.36 7.67,-7.01 12.95,-7.6 5.28,-0.59 13.84,3.74 17.62,7.9 z m -34.35,-22.7 c 8.04,2.94 16.29,13.35 14.91,20.99 -1.38,7.63 -7.03,13.23 -15.02,14.57 -7.99,1.33 -11.37,1.36 -18.33,-3.41 -6.96,-4.76 -9.03,-11.29 -8.63,-18.89 0.26,-4.98 3.68,-9.55 8.13,-12.45 4.45,-2.91 13.66,-2.73 18.94,-0.81 z m -40.01,-5.46 c 8.53,-0.76 20.74,5.16 22.57,12.69 1.84,7.54 -0.72,14.87 -7.28,19.62 -6.57,4.74 -10.2,5.96 -18.51,4.53 -8.31,-1.43 -13.38,-6.59 -15.78,-13.81 -1.58,-4.74 -0.55,-10.15 2.32,-14.62 2.87,-4.48 11.09,-7.91 16.68,-8.41 z m -37.72,10.62 c 7.66,-3.81 20.26,-3.03 25.05,3.08 4.78,6.1 5.17,14.17 0.8,20.99 -4.37,6.82 -7.05,9.89 -15.31,11.6 -8.25,1.71 -14.27,-1.18 -19.48,-6.73 -3.41,-3.64 -4.37,-9.37 -3.37,-14.58 1.01,-5.22 7.28,-11.86 12.31,-14.36 z m -31.29,25.31 c 5.38,-6.66 17.48,-10.96 24.36,-7.38 6.87,3.59 10.52,10.69 9.37,18.71 -1.14,8.02 -2.67,11.72 -9.49,16.67 -6.82,4.96 -14.04,5.06 -20.86,1.7 -4.48,-2.21 -7.65,-6.74 -8.83,-11.92 -1.18,-5.18 1.92,-13.41 5.45,-17.78 z"
       style="fill:#ff9955;fill-opacity:1;stroke:#000000;stroke-width:2.05092;stroke-miterlimit:4;stroke-dasharray:none;stroke-opacity:1"
       id="ellipse43-3-4-3" />
    <ellipse
       style="fill:#000000;fill-opacity:1;stroke:#ffffff;stroke-width:1.64122;stroke-miterlimit:4;stroke-dasharray:none;stroke-opacity:1"
       id="path808-0-2-5"
       cx="3281.0718"
       cy="251.44229"
       rx="13.592196"
       ry="44.518425"
       transform="matrix(0.82714178,0.5619933,-0.546552,0.83742517,0,0)"
       inkscape:transform-center-x="796.932"
       inkscape:transform-center-y="-271.03967" />
    <ellipse
       style="fill:#000000;fill-opacity:1;stroke:#ffffff;stroke-width:1.64122;stroke-miterlimit:4;stroke-dasharray:none;stroke-opacity:1"
       id="path808-6-8-8-6"
       cx="-95.179237"
       cy="-3366.8369"
       rx="13.592196"
       ry="44.518425"
       transform="matrix(0.56632056,-0.82418506,-0.81353722,-0.58151285,0,0)"
       inkscape:transform-center-x="643.92363"
       inkscape:transform-center-y="542.14903" />
    <ellipse
       style="fill:#000000;fill-opacity:1;stroke:#ffffff;stroke-width:1.15096;stroke-miterlimit:4;stroke-dasharray:none;stroke-opacity:1"
       id="path803-8-1-7"
       cx="1755.7394"
       cy="2859.0571"
       rx="49.25708"
       ry="83.032318"
       transform="rotate(-20.30669)" />
    <ellipse
       style="fill:#ffffff;fill-opacity:1;stroke:#000000;stroke-width:0.507689;stroke-miterlimit:4;stroke-dasharray:none;stroke-opacity:1"
       id="path832-5-6-9"
       cx="1099.7968"
       cy="3245.2749"
       rx="12.941344"
       ry="22.773775"
       transform="matrix(0.79399322,-0.60792662,0.54731137,0.83692907,0,0)" />
    <ellipse
       style="fill:#000000;fill-opacity:1;stroke:#000000;stroke-width:0.294369;stroke-miterlimit:4;stroke-dasharray:none;stroke-opacity:1"
       id="path832-9-6-0-9"
       cx="1103.0321"
       cy="3241.4792"
       rx="7.9625173"
       ry="12.44386"
       transform="matrix(0.79399322,-0.60792662,0.54731137,0.83692907,0,0)" />
    <ellipse
       style="fill:#ffffff;fill-opacity:1;stroke:#000000;stroke-width:0.0897685;stroke-miterlimit:4;stroke-dasharray:none;stroke-opacity:1"
       id="path832-7-4-3-2"
       cx="1107.3921"
       cy="3236.8516"
       rx="2.324791"
       ry="3.9635477"
       transform="matrix(0.79399322,-0.60792662,0.54731137,0.83692907,0,0)" />
    <ellipse
       style="fill:#ffffff;fill-opacity:1;stroke:#000000;stroke-width:0.507689;stroke-miterlimit:4;stroke-dasharray:none;stroke-opacity:1"
       id="path832-79-4-3-3"
       cx="1062.4203"
       cy="3234.1692"
       rx="12.941344"
       ry="22.773775"
       transform="matrix(0.79399322,-0.60792662,0.54731137,0.83692907,0,0)" />
    <ellipse
       style="fill:#000000;fill-opacity:1;stroke:#000000;stroke-width:0.294369;stroke-miterlimit:4;stroke-dasharray:none;stroke-opacity:1"
       id="path832-9-3-6-2-2"
       cx="1065.6556"
       cy="3230.3735"
       rx="7.9625173"
       ry="12.44386"
       transform="matrix(0.79399322,-0.60792662,0.54731137,0.83692907,0,0)" />
    <ellipse
       style="fill:#ffffff;fill-opacity:1;stroke:#000000;stroke-width:0.0897685;stroke-miterlimit:4;stroke-dasharray:none;stroke-opacity:1"
       id="path832-7-3-4-1-5"
       cx="1070.0156"
       cy="3225.7456"
       rx="2.324791"
       ry="3.9635477"
       transform="matrix(0.79399322,-0.60792662,0.54731137,0.83692907,0,0)" />
    <path
       id="path1541-8-4-7"
       style="fill:#ffffff;stroke:#000000;stroke-width:0.647846"
       d="m 2606.4371,1976.8951 a 5.2168182,5.4233538 57.046106 0 0 -2.7397,6.4582 5.2168182,5.4233538 57.046106 0 0 0.075,0.1803 5.2098032,5.4306557 78.437022 0 0 -0.1371,-0.242 5.2098032,5.4306557 78.437022 0 0 -7.4054,-1.7958 5.2098032,5.4306557 78.437022 0 0 -1.9861,7.159 5.2098032,5.4306557 78.437022 0 0 0.175,0.2449 5.1272905,5.5179087 87.270722 0 0 -0.2875,-0.2948 5.1272905,5.5179087 87.270722 0 0 -7.8022,-0.025 5.1272905,5.5179087 87.270722 0 0 -0.082,7.2518 5.1272905,5.5179087 87.270722 0 0 0.2077,0.1703 5.0175439,5.6381642 85.243488 0 0 -0.3948,-0.2071 5.0175439,5.6381642 85.243488 0 0 -7.6503,2.1166 5.0175439,5.6381642 85.243488 0 0 2.2279,6.7788 5.0175439,5.6381642 85.243488 0 0 0.4059,0.1591 4.895189,5.7781918 76.603094 0 0 -0.5314,-0.023 4.895189,5.7781918 76.603094 0 0 -6.1592,4.9359 4.895189,5.7781918 76.603094 0 0 5.2761,4.9566 4.895189,5.7781918 76.603094 0 0 0.825,-0.05 4.8645286,5.8142389 60.443035 0 0 -0.6486,0.4279 4.8645286,5.8142389 60.443035 0 0 -1.4986,7.2246 4.8645286,5.8142389 60.443035 0 0 7.7736,0.2719 4.8645286,5.8142389 60.443035 0 0 0.5393,-0.4505 4.9846401,5.6752035 48.901708 0 0 -0.2498,0.4946 4.9846401,5.6752035 48.901708 0 0 2.7709,6.5688 4.9846401,5.6752035 48.901708 0 0 7.0975,-3.5928 4.9846401,5.6752035 48.901708 0 0 0.1491,-0.3913 5.0977213,5.5498238 45.124744 0 0 -0.039,0.279 5.0977213,5.5498238 45.124744 0 0 4.943,5.2484 5.0977213,5.5498238 45.124744 0 0 5.6897,-5.4058 5.0977213,5.5498238 45.124744 0 0 0.011,-0.4328 20.526535,34.15884 66.258658 0 0 0,-3e-4 5.1909956,5.4503059 49.668379 0 0 0.038,0.2779 5.1909956,5.4503059 49.668379 0 0 6.3216,3.8008 5.1909956,5.4503059 49.668379 0 0 4.1396,-6.4629 5.1909956,5.4503059 49.668379 0 0 -0.077,-0.3115 20.526535,34.15884 66.258658 0 0 0.01,0 5.221782,5.4182004 72.025746 0 0 0.131,0.3152 5.221782,5.4182004 72.025746 0 0 7.22,2.2608 5.221782,5.4182004 72.025746 0 0 2.486,-7.0583 5.221782,5.4182004 72.025746 0 0 -0.1241,-0.2058 20.526535,34.15884 66.258658 0 0 0.01,0 5.1676938,5.4748447 85.526012 0 0 0.1652,0.2295 5.1676938,5.4748447 85.526012 0 0 7.6824,0.8184 5.1676938,5.4748447 85.526012 0 0 0.9361,-7.2651 5.1676938,5.4748447 85.526012 0 0 -0.2542,-0.2624 20.526535,34.15884 66.258658 0 0 0.01,-0.01 5.0665057,5.583901 86.903905 0 0 0.2755,0.2112 5.0665057,5.583901 86.903905 0 0 7.8065,-1.1439 5.0665057,5.583901 86.903905 0 0 -1.1772,-7.0761 5.0665057,5.583901 86.903905 0 0 -0.4162,-0.2356 4.9370508,5.7295851 80.486496 0 0 0.5162,0.1276 4.9370508,5.7295851 80.486496 0 0 6.9432,-3.8703 4.9370508,5.7295851 80.486496 0 0 -4.1229,-5.8512 4.9370508,5.7295851 80.486496 0 0 -0.681,-0.077 4.8509176,5.830324 67.106762 0 0 0.5988,-0.1993 4.8509176,5.830324 67.106762 0 0 3.6421,-6.6876 4.8509176,5.830324 67.106762 0 0 -4.4176,-2.8352 4.895189,5.7781918 55.914222 0 0 -1.5247,-4.5656 4.895189,5.7781918 55.914222 0 0 -7.801,1.203 4.895189,5.7781918 55.914222 0 0 -0.4494,0.5587 5.0340247,5.6197824 46.60903 0 0 0.1626,-0.4902 5.0340247,5.6197824 46.60903 0 0 -3.8202,-6.0392 5.0340247,5.6197824 46.60903 0 0 -6.5326,4.4852 5.0340247,5.6197824 46.60903 0 0 -0.06,0.3275 20.526535,34.15884 66.258658 0 0 -0.015,-10e-5 5.1413444,5.5028537 45.587877 0 0 0.01,-0.3563 5.1413444,5.5028537 45.587877 0 0 -5.6092,-4.6348 5.1413444,5.5028537 45.587877 0 0 -5.0334,5.9283 5.1413444,5.5028537 45.587877 0 0 0.034,0.2637 20.526535,34.15884 66.258658 0 0 -0.017,0 5.2168182,5.4233538 57.046106 0 0 -0.085,-0.3356 5.2168182,5.4233538 57.046106 0 0 -6.7551,-3.1561 5.2168182,5.4233538 57.046106 0 0 -0.7093,0.3065 z" />
    <ellipse
       style="fill:#999999;fill-opacity:1;stroke:#ffffff;stroke-width:0.184768;stroke-miterlimit:4;stroke-dasharray:none;stroke-opacity:1"
       id="path5373-0-2-7-6"
       cx="2676.4463"
       cy="2106.7336"
       rx="3.6891971"
       ry="3.8254507" />
    <ellipse
       style="fill:#999999;fill-opacity:1;stroke:#ffffff;stroke-width:0.184768;stroke-miterlimit:4;stroke-dasharray:none;stroke-opacity:1"
       id="path5373-0-6-2-6-4"
       cx="2639.791"
       cy="2112.833"
       rx="3.6891971"
       ry="3.8254507" />
  </g>
</svg>
