<?xml version="1.0" encoding="UTF-8"?>
<!DOCTYPE svg PUBLIC "-//W3C//DTD SVG 1.1//EN" "http://www.w3.org/Graphics/SVG/1.1/DTD/svg11.dtd">
<!-- Creator: CorelDRAW 2018 (64-Bit) -->
<svg xmlns="http://www.w3.org/2000/svg" xml:space="preserve" width="171mm" height="174mm" version="1.1" style="shape-rendering:geometricPrecision; text-rendering:geometricPrecision; image-rendering:optimizeQuality; fill-rule:evenodd; clip-rule:evenodd"
viewBox="0 0 17100 17400"
 xmlns:xlink="http://www.w3.org/1999/xlink">
 <defs>
  <style type="text/css">
   <![CDATA[
    .fil1 {fill:#DA2D2A}
    .fil2 {fill:#FFCC00}
    .fil0 {fill:black;fill-rule:nonzero}
    .fil3 {fill:white;fill-rule:nonzero}
   ]]>
  </style>
 </defs>
 <g id="Layer_x0020_1">
  <metadata id="CorelCorpID_0Corel-Layer"/>
  <path class="fil0" d="M3557.92 10185.32c973.88,-26.24 1706.63,278.16 2546.13,267.05 672.13,-8.9 1420.77,-436.01 2422.65,-538.69 1113.19,-114.09 1433.8,292.97 2352.75,558.14 246.83,71.21 818.82,183.77 1079.86,195.56 764.18,34.55 1238.26,18.17 1973.79,-63.59 387.89,-43.12 788.21,-73.45 1177.6,-17.68 287.84,41.25 516.11,122.13 917.06,83.45 162.71,-15.71 185.54,-4.26 192.79,156.25 10.6,234.66 10.75,470 8.9,704.99 -9.55,1213.56 -16.48,2427.17 -33.86,3640.62l-42.35 2040.67c-18.26,141.42 321.01,159.81 302.98,-39.56 12.29,-490.43 13.6,-981.14 19.49,-1471.74 12.1,-1007.48 26,-2014.94 36.74,-3022.43 7.62,-714.11 12.88,-1428.24 15.8,-2142.36 0.97,-237.55 -11.79,-475.13 -12.54,-712.71 -4.49,-1417.34 30.24,-2837.54 35.5,-4255.3 4.81,-1301.33 14.22,-2866.81 12.71,-4168.13 -0.07,-58.22 38.25,-52.91 81.3,-74.01 261.2,-128.07 407.03,-398.58 403.86,-623.03 -4.11,-291.43 -312.93,-631.51 -610.76,-622.88 -382.5,11.08 -587.2,253.25 -657.64,523.58 -72.69,279 55.08,616.97 327.66,732.48 109.78,46.53 160.15,51.31 159.71,166.85 -0.32,85.23 -1.79,241.13 1.3,326.27 2.53,69.84 -29.6,96.37 -95.97,91.17 -353.1,-27.66 -697.21,-50.91 -1051.53,-62.29 -1182.31,-38.01 -2323.85,38.73 -3482.93,332.7 -1386.16,351.56 -3017.99,918.93 -3861.05,2154.64 -846.52,1240.56 -1812.75,3662.61 -3390.67,4321.46 -655.72,273.78 -1356.78,406.75 -1998.61,668.02 -567.83,231.15 -1289.05,830.61 -1578.71,1402.22 -212.15,418.66 -460.65,554.62 -735.6,884.55 -50.35,60.43 -15.91,129.29 69.05,75.63 252.47,-159.49 507.1,-316.09 752.81,-485.55 964.84,-665.38 1353.02,-991.16 2661.78,-1026.35zm12673.01 -1543.19c0.12,361.45 0.57,722.89 -0.44,1084.33 -0.13,46.69 -1.82,94.93 -13.38,139.71 -20.59,79.75 -74.22,132.38 -160.18,119.4 -319.04,-48.18 -644.99,-74.36 -953.3,-161.82 -223.44,-63.38 -451.56,-177.18 -627.41,-327.29 -278.41,-237.65 -452.69,-501.42 -439.75,-857.34 30.18,-831.92 986.04,-1192.63 1681.11,-1305.28 130.52,-21.16 269.02,-2.28 402.88,9.76 76.69,6.89 113.77,64.54 113.23,143.84 -2.6,384.91 -3.08,769.77 -2.76,1154.69zm12.98 -1728.36c-0.71,225.66 -28.58,172.15 -295.54,113.57 -346.28,-75.98 -951.98,-482.52 -1184.14,-737.73 -227.2,-249.75 -303.05,-637.57 -120.67,-954.37 143.11,-248.59 348.59,-405.05 607.29,-520.64 275.29,-122.99 569.1,-134.56 855.65,-190.97 81.53,-16.05 129.39,22.13 146.13,101.2 6.04,28.54 12.12,57.81 12.19,86.77 1.67,663.77 -18.8,1438.78 -20.91,2102.17zm24.43 -3619.06c0,290.98 0.5,581.95 -0.22,872.93 -0.32,128.42 -38.76,174.56 -167.93,169.43 -103.62,-4.12 -208.58,-23.27 -308.89,-50.64 -149.04,-40.68 -297.03,-88.08 -440.61,-144.9 -102.79,-40.68 -212.03,-85.2 -292.87,-156.81 -148.39,-131.43 -290.66,-263.19 -322.36,-489.8 -52.63,-376.3 172,-605.41 397.08,-834.19 138.72,-141.02 297.82,-267.94 490.63,-333.71 158.62,-54.1 313.51,-132.44 491.97,-92.06 106.93,24.19 153.3,73.44 153.45,187.01 0.38,290.92 0.12,581.83 0.12,872.74 -0.12,0 -0.24,0 -0.37,0zm-4639.89 6998.18c25.89,43.85 49.85,86.34 67.3,123.9 -45.25,-7.4 -170.71,-8.8 -192.93,-35.43 -247.12,-296.21 -556.4,-842.15 -630.6,-1256.68 -66.68,-372.53 35.54,-609.44 150.17,-951.96 9.41,-28.08 32.58,-98 49.4,-123.6 49.13,132.49 67.85,535.36 110.35,872.69 58.09,461.44 210.97,972.39 446.31,1371.08zm-511.08 -4160.49c21.44,39.45 -3.53,198.4 -7.78,224.18 -69.64,422.77 -83.91,886.32 -83.51,1314.52 0.02,30.13 11.16,172.62 0.17,202.75 -10.69,-8.94 -67.28,-94.26 -83,-123.62 -138.61,-258.86 -279.19,-396.48 -246.72,-730.24 25.58,-263.03 172.79,-472.85 298.95,-698.47 10.54,-18.84 90.05,-158.66 121.89,-189.12zm562.86 -2910.66c50,-66.39 107.53,-137.95 130.93,-154.59 -4.47,45.54 -93.75,274.87 -106.65,317.89 -92.37,308.14 -200.51,612.15 -279.22,923.64 -74.48,294.78 -132.89,593.64 -193.87,891.83 -16.17,79.11 -88.37,537.16 -96.43,545.22 -90.41,-100.92 -235.37,-843.71 -177.56,-1165.1 94.11,-523.21 528.13,-1100.3 722.8,-1358.89z"/>
  <path class="fil1" d="M9474.3 7484.96c65.27,30.48 298.01,147.72 302.69,147.58 105.83,-3.32 180.03,-59.95 102.33,-166.74 -31.09,-42.73 -89.39,-64.54 -131.47,-100.62 -78.89,-67.61 -178.64,-107.45 -262.17,-172.76 -26.24,-20.52 -23.54,-15.51 -23.7,-48.31l-5.34 -1031.03c-1.5,-54.98 8.14,-54.28 60.94,-56.71 196.4,-9.07 394.28,1.23 590.67,-7.79 152.25,-6.99 304.5,-14.13 456.74,-20.85 346.6,-15.25 334.27,-275.92 -50.36,-269.49 -246.57,4.11 -762.23,-9.59 -1008.78,-5.85 -52.76,0.8 -40.27,-0.74 -38.7,-96.67 6.15,-374.31 25.54,-744.71 11.8,-1116.83 -2.68,-72.54 11.7,-80.86 75.85,-81.79l338.16 -4.88c77.8,0.21 159.94,6.5 232.33,-15.58 88.31,-26.94 96.35,-119.15 17.37,-167.11 -49.81,-30.25 -112.81,-46.74 -171.58,-52.69l-428.98 -24.71c-55.74,-3.21 -51.93,-23.48 -51.94,-55.59 -0.04,-101.16 16.56,-289.33 4.85,-365.58 -7.71,-50.22 -31.83,-94.28 -84.19,-124.06 -39.99,-22.75 -112.9,-34.18 -144.68,-12.44 -35.3,24.14 -54.72,91.53 -56.25,140.84l-1.01 327.86c-0.28,92.71 26.38,102.85 -56.06,103.87 -120.29,1.5 -290.02,-0.76 -410.15,3.2 -58.82,1.94 -120.35,15.44 -174.5,38.29 -52.23,22.04 -87.78,78.65 -55.47,129.93 25.22,40.03 80.86,79.31 126.87,84.51 159.92,18.04 341.14,14.84 502.22,20.43 72.06,2.51 72.43,9.64 71.73,79.73 -3.33,334.85 -0.63,774.83 -3,1109.69 -0.79,113.1 17.19,85.28 -96.7,84.86 -273.27,-1 -601.61,-10.4 -874.88,-13.38 -105.19,-1.14 -210.55,4.51 -315.66,10.3 -25.3,1.4 -57.16,8.74 -73.29,25.55 -102.82,107.14 -106.83,120.1 12.78,193.46 24.11,14.78 55.24,22.62 83.89,24.8 430.66,32.89 712.76,33.44 1157.67,31.37 108.9,-6.06 110.52,-3.72 107.37,104.12 -6.47,221.69 1.81,456.87 -7.5,667.28 -2.01,45.51 -4.22,166.99 -10.19,225 -3.31,32.26 -0.39,36.68 -30.27,23.64 -68.98,-30.09 -250.35,-144.2 -269.24,-147.52 -71.75,-12.62 -190.04,-5.24 -135.11,109.99 23.77,49.86 70.21,90.93 113.14,128.9 68.56,60.65 169.41,124.97 273,198.45 19.09,13.54 20.13,8.39 19.85,30.55 -0.88,60.69 1.18,137.41 -0.14,243.86 -1.26,100.87 10.38,238.51 10.39,303.87 0,87.73 3.33,96.21 -48.46,96.41l-588.41 2.4c-117.82,0.47 -179.71,32.7 -238.98,119.46 -50.99,74.63 -23.96,368.42 4.99,524.97 21.92,118.64 216.95,157.11 306.15,75.29 44.41,-40.74 32.3,-101.36 34.73,-164.45l9.43 -245.22c2.42,-52.81 -2.61,-64.94 57.27,-67.67 278.55,-12.69 622.45,-3 904.33,9.83 98.83,4.5 85.9,17.16 83.87,115.76 -1.63,79.06 -0.03,197.51 6.34,275.3 9.3,113.57 -7.22,139.91 193.59,150.26 44.99,2.31 94.89,0.19 146.52,-39.53 54.65,-42.04 46.44,-89.87 71.21,-154.36l24.75 -274.94c19.93,-221.44 -68.41,-301.02 -231.07,-308.03 -81.27,-3.5 -318.42,-5 -418.87,-11.63 -34.51,-2.27 -36.44,0.6 -35.15,-39.93 2.73,-85.63 1.47,-364.51 1.4,-481.46 0,-15.48 -1.02,-22.9 15.03,-15.41zm1408.07 -1332.87c-118.48,212.02 -256.08,413.26 -324.92,651.86 -59.75,207.12 -55.15,403.97 -5.38,614.65 52.28,221.35 160.41,399.92 306.16,563.98 39.38,44.32 41.27,86.46 21.98,144.38 -151.86,455.69 -246.8,636.14 -177.52,1125 37.12,262.02 352.81,910.84 556.94,1080.17 19.18,15.91 34.01,40.48 32.91,45.27 -2.05,3.15 -9.81,2.79 -20.53,1.47 -879.34,-107.38 -1535.96,-693.15 -2492.89,-738.88 -1016.38,-48.59 -2012.85,603.02 -2820.56,616.49 -1138.5,18.97 -1441.11,-401.03 -3099.98,-200.49 -582.62,70.43 -1134.79,326.32 -1606.18,675.48 -116.3,86.13 -345.79,294.7 -474.63,338.48 0.24,-1.89 194.3,-325.19 212.25,-352.66 304.92,-466.57 859.51,-954.22 1324.57,-1156.88 668.01,-291.1 1440.74,-429.5 2064.63,-714.02 1805.54,-823.39 2563.61,-2795.3 3537.39,-4337.58 278.93,-441.83 913.39,-1004.97 1389.29,-1267.25 719.16,-396.37 1707.53,-678.9 2420.01,-884.66 105.6,-30.5 217.75,-39.03 327.37,-54.16 16.45,-2.28 43.59,10.08 51.06,23.73 6.98,12.76 0.01,40.43 -10.42,54.35 -108.99,145.4 -215.37,293.11 -331.24,432.92 -298.3,359.92 -792.85,1118.61 -927.97,1573.37 -107.03,360.08 -71.47,969.35 49.97,1317.15l62.12 177.89c31.86,91.23 -7.55,173.5 -64.43,269.94z"/>
  <path class="fil2" d="M12008.4 10448.05c-77,-13.86 -86.45,-51.66 -141.59,-108.93 -266.8,-277.1 -470.18,-1084.16 -518.75,-1500.33 -23.66,-202.85 -41.16,-401.3 -54.56,-604.66 -17.54,-266.19 -50.06,-532.39 -49.34,-798.51 0.8,-293.04 29.55,-586.17 50.74,-878.93 17.6,-243.13 26.66,-488.3 66.55,-728.06 70.83,-425.66 149.71,-850.83 248.49,-1270.73 95.21,-404.71 189.8,-814.23 340.35,-1199.89 138.49,-354.76 317.35,-699.3 550.17,-1008.55 78.32,-104.04 176.92,-165.25 310.41,-177.04 178.76,-15.78 1704.72,-115.27 2101.32,-80.35 3.34,10.9 -39.04,36.49 -81.05,60.04 -479.98,269.19 -1046.08,839.47 -1032.37,1412.32 9.95,414.48 327.83,656.75 624.72,893.1 85.27,67.88 118.16,48.43 7.39,99.86 -390.1,181.1 -877.44,753.81 -881.89,1197.62 -4.65,472.79 354.31,881.67 730.58,1125.19 27.27,17.65 104.87,47.46 127.92,71.63 -624.12,217.89 -1281.04,852.97 -1304.31,1549.63 -6.83,204.81 59.24,476.87 174.82,738.09 214.09,483.85 740,954.99 1235.41,1124.91 -4.59,8.41 -33.2,10.68 -66.39,12.98 -782.35,54.18 -1662.68,210.31 -2438.62,70.61z"/>
  <path class="fil3" d="M14789.22 6998.19c-475.31,-268 -786.12,-570.03 -930.45,-1019.94 -132.97,-414.5 56.42,-709.29 320.87,-985.47 253.46,-264.72 346.4,-327.93 606.19,-440.76 97.15,-42.2 99.99,-57.87 4.52,-103.69 -374.61,-179.81 -711.25,-457.27 -743.84,-899.91 -36,-488.74 371.52,-944.16 749.05,-1202.26 176.27,-120.51 280.04,-227.63 501.49,-237.19 10.09,-0.43 211.88,-0.13 249.95,15.49 -182.49,108.4 -343.05,211.32 -470.78,305.77 -303.45,224.36 -661.33,650.92 -636.44,1054.6 37.97,616.78 771.97,815.92 1264.48,975.77 -18.91,16 -141.16,28.37 -163,36.25 -567.58,204.79 -1318.18,601.34 -1300.78,1316.62 9,368.73 328.26,696.05 608.77,898.55 192.7,139.13 585.34,303.04 762.86,406.39 -24.14,18.01 -119.79,38.89 -146.91,47.47 -747.17,236.52 -1580.07,542.25 -1633.53,1473.36 -14.01,244.04 39.2,490.42 162.9,694.16 206.45,340.03 518.26,540.8 895.37,668.37 387.33,131.02 780.94,155.55 1181.65,150.66 61.3,-0.74 90.58,26.42 101.55,85.18 36.41,195.04 33.25,194.01 -162.02,201.18 -557.41,20.45 -1085.14,-115.87 -1582.94,-343.27 -585.96,-267.68 -1099.36,-920.43 -1092.12,-1562.29 8.51,-754.04 836.15,-1281.99 1453.16,-1535.04z"/>
  <path class="fil2" d="M15961.91 655.3c44.08,-217.95 255.27,-432.31 430.01,-429.52 202.71,3.23 426.68,216.89 437.58,425.57 13.74,263.15 -141.81,493.92 -431.15,512.08 -273.05,17.07 -487.46,-255.91 -436.44,-508.13z"/>
 </g>
</svg>
